# This file is brought to you by Roblox Corporation
# Generated by Roblox Studio

mtllib block.mtl

g Part1

v -6.71999 1 -12.43 
v -6.71999 1 -11.1 
v -6.71999 3.8147e-06 -12.43 
v -6.71999 3.8147e-06 -11.1 
v -8.16999 1 -11.1 
v -6.71999 1 -11.1 
v -8.16999 1 -12.43 
v -6.71999 1 -12.43 
v -6.71999 1 -11.1 
v -8.16999 1 -11.1 
v -6.71999 3.8147e-06 -11.1 
v -8.16999 3.8147e-06 -11.1 
v -8.16999 1 -11.1 
v -8.16999 1 -12.43 
v -8.16999 3.8147e-06 -11.1 
v -8.16999 3.8147e-06 -12.43 
v -8.16999 3.8147e-06 -12.43 
v -6.71999 3.8147e-06 -12.43 
v -8.16999 3.8147e-06 -11.1 
v -6.71999 3.8147e-06 -11.1 
v -8.16999 1 -12.43 
v -6.71999 1 -12.43 
v -8.16999 3.8147e-06 -12.43 
v -6.71999 3.8147e-06 -12.43 

vn 1 0 0 
vn 1 0 0 
vn 1 0 0 
vn 1 0 0 
vn 0 1 0 
vn 0 1 0 
vn 0 1 0 
vn 0 1 0 
vn 0 0 1 
vn 0 0 1 
vn 0 0 1 
vn 0 0 1 
vn -1 0 0 
vn -1 0 0 
vn -1 0 0 
vn -1 0 0 
vn 0 -1 0 
vn 0 -1 0 
vn 0 -1 0 
vn 0 -1 0 
vn 0 0 -1 
vn 0 0 -1 
vn 0 0 -1 
vn 0 0 -1 

vt 4.03732 -0.0114049 
vt 2.30832 -0.0114049 
vt 4.03732 -1.3114 
vt 2.30832 -1.3114 
vt 4.19332 -0.0114049 
vt 2.30832 -0.0114049 
vt 4.19332 -1.74041 
vt 2.30832 -1.74041 
vt 4.19332 -0.0114049 
vt 2.30832 -0.0114049 
vt 4.19332 -1.3114 
vt 2.30832 -1.3114 
vt 4.03732 -0.0114049 
vt 2.30832 -0.0114049 
vt 4.03732 -1.3114 
vt 2.30832 -1.3114 
vt 4.19332 -0.0114049 
vt 2.30832 -0.0114049 
vt 4.19332 -1.74041 
vt 2.30832 -1.74041 
vt 4.19332 -0.0114049 
vt 2.30832 -0.0114049 
vt 4.19332 -1.3114 
vt 2.30832 -1.3114 

usemtl Part1Mtl

f 1/1/1 2/2/2 3/3/3 
f 3/3/3 2/2/2 4/4/4 
f 5/5/5 6/6/6 7/7/7 
f 7/7/7 6/6/6 8/8/8 
f 9/9/9 10/10/10 11/11/11 
f 11/11/11 10/10/10 12/12/12 
f 13/13/13 14/14/14 15/15/15 
f 15/15/15 14/14/14 16/16/16 
f 17/17/17 18/18/18 19/19/19 
f 19/19/19 18/18/18 20/20/20 
f 21/21/21 22/22/22 23/23/23 
f 23/23/23 22/22/22 24/24/24 

